<svg data-v-423bf9ae="" xmlns="http://www.w3.org/2000/svg" viewBox="0 0 591 90" class="iconLeft"><!----><!----><!----><g data-v-423bf9ae="" id="8896709a-8a7d-43b7-9f3f-e0659e601ff3" fill="#FFFFFF" transform="matrix(4.687499930150808,0,0,4.687499930150808,95.68606345262393,-2.7187498402781856)"><path d="M2.77 3.98L0.06 13.78L1.96 13.78L2.53 11.62L5.98 11.62L6.55 13.78L8.46 13.78L5.74 3.98ZM2.98 9.91L4.17 5.52L4.34 5.52L5.53 9.91ZM11.09 6.83L9.35 6.83L9.35 13.78L11.12 13.78L11.12 9.88C11.12 8.90 11.76 8.43 12.66 8.43L13.69 8.43L13.69 6.80L12.99 6.80C12.11 6.80 11.52 7.07 11.26 7.84L11.09 7.84ZM14.03 6.83L14.03 8.37L15.79 8.37L15.79 12.43C15.79 13.22 16.38 13.78 17.16 13.78L19.07 13.78L19.07 12.24L17.95 12.24C17.70 12.24 17.56 12.10 17.56 11.82L17.56 8.37L19.46 8.37L19.46 6.83L17.56 6.83L17.56 4.68L15.79 4.68L15.79 6.83ZM20.52 8.79C20.52 10.08 21.41 10.68 23.35 10.95L23.56 10.98C24.32 11.07 25.03 11.13 25.03 11.65C25.03 12.19 24.37 12.49 23.69 12.49C22.79 12.49 21.87 12.04 21.43 11.13L20.02 12.01C20.66 12.99 21.73 13.97 23.65 13.97C25.49 13.97 26.77 12.98 26.77 11.62C26.77 10.35 25.94 9.79 23.72 9.49L23.51 9.46C22.78 9.37 22.26 9.28 22.26 8.78C22.26 8.36 22.62 8.09 23.25 8.09C24.18 8.09 24.88 8.62 25.41 9.25L26.68 8.25C25.75 7.27 24.74 6.64 23.31 6.64C21.70 6.64 20.52 7.50 20.52 8.79ZM32.86 6.83L31.04 12.10L30.87 12.10L29.05 6.83L27.15 6.83L30.04 14.45L29.15 16.58L31.05 16.58L34.76 6.83ZM42.85 3.78C40.95 3.78 39.45 4.87 39.45 6.62C39.45 8.40 40.59 9.09 42.69 9.55L42.81 9.58C44.10 9.86 44.83 10.12 44.83 10.98C44.83 11.69 44.27 12.32 43.08 12.32C41.59 12.32 40.91 11.51 40.91 10.30L40.91 10.08L39.09 10.08L39.09 10.39C39.09 12.68 40.63 13.97 43.02 13.97C45.11 13.97 46.65 12.87 46.65 10.89C46.65 9.11 45.46 8.40 43.44 7.95L43.32 7.92C42.14 7.66 41.27 7.49 41.27 6.58C41.27 5.92 41.87 5.43 42.85 5.43C43.97 5.43 44.69 5.92 44.69 7.03L44.69 7.31L46.48 7.31L46.48 6.89C46.48 4.93 44.95 3.78 42.85 3.78ZM47.66 10.30C47.66 12.46 49.25 13.97 51.27 13.97C53.21 13.97 54.43 12.89 54.77 11.31L53.03 10.88C52.85 11.76 52.36 12.35 51.30 12.35C50.16 12.35 49.42 11.54 49.42 10.30C49.42 9.07 50.23 8.26 51.30 8.26C52.36 8.26 52.91 8.93 53.03 9.74L54.77 9.30C54.40 7.71 53.20 6.64 51.27 6.64C49.25 6.64 47.66 8.15 47.66 10.30ZM57.65 6.83L55.92 6.83L55.92 13.78L57.68 13.78L57.68 9.88C57.68 8.90 58.32 8.43 59.22 8.43L60.26 8.43L60.26 6.80L59.56 6.80C58.67 6.80 58.09 7.07 57.82 7.84L57.65 7.84ZM60.96 8.43L62.38 9.35C62.82 8.62 63.39 8.15 64.32 8.15C65.27 8.15 65.77 8.67 65.77 9.32L65.77 9.49L62.99 9.80C61.70 9.94 60.82 10.70 60.82 11.80C60.82 13.13 61.85 13.97 63.42 13.97C64.92 13.97 65.44 13.24 65.60 12.94L65.80 12.94L65.80 13.78L67.54 13.78L67.54 9.34C67.54 7.71 66.30 6.64 64.41 6.64C62.72 6.64 61.78 7.39 60.96 8.43ZM62.66 11.70C62.66 11.30 62.99 11.06 63.64 10.98L65.77 10.72L65.77 10.84C65.77 11.79 65.09 12.52 63.85 12.52C63.07 12.52 62.66 12.18 62.66 11.70ZM69.13 16.58L70.90 16.58L70.90 12.80L71.06 12.80C71.43 13.38 72.04 13.97 73.28 13.97C75.01 13.97 76.47 12.43 76.47 10.30C76.47 8.18 75.01 6.64 73.28 6.64C72.04 6.64 71.43 7.22 71.06 7.81L70.87 7.81L70.87 6.83L69.13 6.83ZM72.80 12.40C71.71 12.40 70.90 11.62 70.90 10.30C70.90 8.99 71.71 8.20 72.80 8.20C73.86 8.20 74.70 8.96 74.70 10.30C74.70 11.65 73.86 12.40 72.80 12.40ZM82.67 6.83L80.85 12.10L80.68 12.10L78.86 6.83L76.96 6.83L79.86 14.45L78.96 16.58L80.86 16.58L84.57 6.83ZM85.15 8.43L86.58 9.35C87.01 8.62 87.58 8.15 88.51 8.15C89.46 8.15 89.96 8.67 89.96 9.32L89.96 9.49L87.18 9.80C85.89 9.94 85.01 10.70 85.01 11.80C85.01 13.13 86.04 13.97 87.61 13.97C89.11 13.97 89.63 13.24 89.80 12.94L89.99 12.94L89.99 13.78L91.73 13.78L91.73 9.34C91.73 7.71 90.50 6.64 88.61 6.64C86.91 6.64 85.97 7.39 85.15 8.43ZM86.86 11.70C86.86 11.30 87.18 11.06 87.84 10.98L89.96 10.72L89.96 10.84C89.96 11.79 89.28 12.52 88.05 12.52C87.26 12.52 86.86 12.18 86.86 11.70ZM95.06 6.83L93.32 6.83L93.32 13.78L95.09 13.78L95.09 9.88C95.09 8.90 95.73 8.43 96.63 8.43L97.66 8.43L97.66 6.80L96.96 6.80C96.08 6.80 95.49 7.07 95.23 7.84L95.06 7.84ZM105.62 3.98L103.85 3.98L103.85 7.81L103.68 7.81C103.32 7.22 102.70 6.64 101.47 6.64C99.74 6.64 98.28 8.18 98.28 10.30C98.28 12.43 99.74 13.97 101.47 13.97C102.70 13.97 103.32 13.38 103.68 12.80L103.88 12.80L103.88 13.78L105.62 13.78ZM101.95 8.20C103.04 8.20 103.85 8.99 103.85 10.30C103.85 11.62 103.04 12.40 101.95 12.40C100.88 12.40 100.04 11.65 100.04 10.30C100.04 8.96 100.88 8.20 101.95 8.20Z"></path></g><!----><g data-v-423bf9ae="" id="bafb17aa-2b86-4bfd-847e-4b19fe284bad" transform="matrix(3.2175032034619755,0,0,3.2175032034619755,-13.285378339465254,-6.466051316426764)" stroke="none" fill="#88DF95"><path d="M10.136 6.149a.498.498 0 0 0 .708 0 .5.5 0 0 0 0-.707l-1.07-1.07a.5.5 0 0 0-.707.707l1.069 1.07zM10.136 16.463l-1.07 1.069a.5.5 0 0 0 .708.707l1.07-1.069a.5.5 0 0 0-.708-.707zM8.208 10.806H6.694a.5.5 0 0 0 0 1h1.513a.5.5 0 0 0 .001-1zM27.54 17.648a.471.471 0 0 0-.539.094l-3.256 3.456c.154.201.257.441.292.697a1.474 1.474 0 0 1-.831 1.544l-3.468 1.649a.5.5 0 0 1-.43-.902l3.468-1.649a.483.483 0 0 0-.337-.9l-3.805 1.07a2.77 2.77 0 0 0-2.02 2.666v4.613h3.015l-.184-2.541a.496.496 0 0 1 .294-.489l4.436-1.957c.216-.095.391-.263.495-.474l3.071-6.213a.474.474 0 0 0-.201-.664zM4.46 17.648a.471.471 0 0 1 .539.094l3.256 3.456a1.478 1.478 0 0 0-.292.697 1.474 1.474 0 0 0 .831 1.544l3.468 1.649a.5.5 0 0 0 .43-.902l-3.468-1.649a.483.483 0 0 1 .337-.9l3.805 1.07a2.77 2.77 0 0 1 2.02 2.666v4.613h-3.015l.184-2.541a.496.496 0 0 0-.294-.489l-4.436-1.957a1.001 1.001 0 0 1-.495-.474l-3.071-6.213a.474.474 0 0 1 .201-.664zM21.864 16.977a.5.5 0 0 0-.707.707l1.07 1.069a.498.498 0 0 0 .708 0 .5.5 0 0 0 0-.707l-1.071-1.069zM22.227 4.886l-1.07 1.07a.5.5 0 0 0 .708.707l1.07-1.07a.5.5 0 0 0-.708-.707zM25.306 11.32h-1.513a.5.5 0 0 0 0 1h1.513a.5.5 0 0 0 0-1zM16 4.527a.5.5 0 0 0 .5-.5V2.514a.5.5 0 0 0-1 0v1.513a.5.5 0 0 0 .5.5zM16 19.113a.5.5 0 0 0-.5.5v1.513a.5.5 0 0 0 1 0v-1.513a.5.5 0 0 0-.5-.5z"></path><path d="M16 5.275c-3.609 0-6.545 2.937-6.545 6.545s2.936 6.545 6.545 6.545 6.545-2.937 6.545-6.545S19.609 5.275 16 5.275zm-.688 10.453a.5.5 0 0 1-.464-.687h-2.139c-.442 0-.837-.229-1.059-.611s-.221-.84 0-1.223l.829-1.435a.5.5 0 1 1 .866.5l-.829 1.435a.216.216 0 0 0 0 .223.215.215 0 0 0 .193.111h2.139a.5.5 0 0 1 .817-.541l.688.688a.5.5 0 0 1 0 .708l-.688.688a.505.505 0 0 1-.353.144zm1.747-8.221l.829 1.435a.5.5 0 0 1-.866.5l-.829-1.435c-.111-.193-.273-.193-.385 0l-1.071 1.855a.497.497 0 0 1 .061.976l-.939.252a.5.5 0 0 1-.612-.353l-.252-.939a.5.5 0 0 1 .354-.613c.2-.048.404.025.523.177l1.07-1.853c.441-.768 1.675-.768 2.117-.002zm.575 7.533a.5.5 0 0 1 0-1h1.657a.216.216 0 0 0 .193-.111.216.216 0 0 0 0-.223L18.4 11.828c-.094.125-.222.218-.38.218a.502.502 0 0 1-.484-.63l.252-.939a.508.508 0 0 1 .612-.354l.94.252a.498.498 0 1 1-.061.977l1.07 1.854c.221.383.221.84 0 1.223s-.617.611-1.059.611h-1.656z"></path></g><!----></svg>